<svg width="35" height="33" viewBox="0 0 35 33" fill="none" xmlns="http://www.w3.org/2000/svg">
<g clip-path="url(#clip0_109_4175)">
<path d="M28.5987 22.4502C26.4656 27.2943 21.6214 30.6866 15.9976 30.6866C8.41107 30.6866 2.24029 24.5117 2.24029 16.9248C2.24029 9.33797 8.41107 3.16788 15.9979 3.16788C21.3306 3.16788 25.9684 6.21952 28.2494 10.6695H30.7231C28.2852 4.94682 22.6029 0.927246 15.9979 0.927246C7.17872 0.927246 0 8.10597 0 16.9248C0 25.7437 7.17872 32.9269 15.9979 32.9269C22.8809 32.9269 28.7601 28.5622 31.0143 22.4498H28.599L28.5987 22.4502Z" fill="#d9a445"/>
<path d="M31.4621 15.404V12.4623H28.9755V15.404H26.3198V17.716H28.9755V20.6577H31.4621V17.716H34.1175V15.404H31.4621Z" fill="#d9a445"/>
<path d="M6.18506 12.9536C6.56499 12.7963 6.96163 12.6161 7.37461 12.4126C7.78725 12.2094 8.1905 11.9867 8.58365 11.7439C8.9768 11.5014 9.35361 11.2456 9.7144 10.977C10.0749 10.7084 10.3991 10.4235 10.6879 10.1215H12.733V23.749H9.80313V13.9365C9.40997 14.1988 8.97054 14.4378 8.48588 14.6542C8.00088 14.8707 7.52874 15.0571 7.07018 15.2148L6.18541 12.9536H6.18506Z" fill="#d9a445"/>
<path d="M24.7983 19.949C24.7983 20.5394 24.6967 21.0811 24.4935 21.5731C24.2903 22.0654 23.9856 22.4951 23.5792 22.8625C23.1728 23.2299 22.6648 23.5159 22.0553 23.7194C21.4457 23.9226 20.7408 24.0246 19.9413 24.0246C19.0235 24.0246 18.2598 23.8965 17.6502 23.6408C17.0406 23.3847 16.549 23.0664 16.1754 22.6854C15.8017 22.3048 15.5362 21.8876 15.379 21.435C15.2217 20.982 15.1431 20.5655 15.1431 20.1845C15.1431 19.8035 15.1953 19.4295 15.3003 19.1014C15.4054 18.7733 15.5491 18.4748 15.7331 18.2055C15.9165 17.9362 16.1232 17.6903 16.3525 17.4672C16.5817 17.2442 16.8277 17.0341 17.0901 16.8371C16.5261 16.3789 16.1099 15.9273 15.8414 15.4823C15.5724 15.0373 15.4381 14.4678 15.4381 13.774C15.4381 13.2504 15.5463 12.7462 15.7627 12.2619C15.9791 11.7776 16.2839 11.3556 16.6771 10.9955C17.0702 10.6354 17.5451 10.3477 18.1025 10.1316C18.6595 9.91588 19.2788 9.80768 19.9608 9.80768C20.7603 9.80768 21.4454 9.92249 22.016 10.1514C22.5862 10.3807 23.0549 10.6719 23.4219 11.0251C23.789 11.3786 24.0541 11.7745 24.2183 12.2129C24.3822 12.6513 24.4643 13.0865 24.4643 13.5183C24.4643 14.147 24.2973 14.7325 23.963 15.2757C23.6286 15.8188 23.2121 16.2478 22.7142 16.5619C23.4616 17.0476 23.9953 17.5563 24.3168 18.0879C24.6379 18.6196 24.7983 19.2399 24.7983 19.9486V19.949ZM17.9947 20.068C17.9947 20.2259 18.0305 20.4002 18.1025 20.5909C18.1745 20.7812 18.2893 20.9555 18.4466 21.1131C18.6039 21.2707 18.8067 21.4023 19.0562 21.5073C19.3049 21.6124 19.6069 21.6649 19.9604 21.6649C20.642 21.6649 21.1402 21.5007 21.4548 21.1723C21.7696 20.8438 21.9265 20.4757 21.9265 20.0683C21.9265 19.766 21.858 19.4967 21.7202 19.2601C21.5825 19.0235 21.3956 18.8168 21.1597 18.639C20.9235 18.4616 20.6451 18.304 20.324 18.1659C20.0025 18.0277 19.6584 17.8997 19.2914 17.7814C18.9243 18.0573 18.616 18.3791 18.3673 18.7472C18.1182 19.1154 17.9936 19.5555 17.9936 20.068H17.9947ZM21.6326 13.5987C21.6326 13.4546 21.603 13.3015 21.5442 13.138C21.485 12.9745 21.3869 12.8211 21.2491 12.677C21.1114 12.5333 20.9377 12.4122 20.7279 12.3141C20.5182 12.216 20.2624 12.167 19.9611 12.167C19.6598 12.167 19.4236 12.2125 19.2141 12.3044C19.0043 12.3959 18.8307 12.517 18.6929 12.6673C18.5552 12.8179 18.4536 12.978 18.3882 13.1478C18.3224 13.3175 18.2897 13.4811 18.2897 13.6376C18.2897 14.0562 18.4435 14.4483 18.7517 14.814C19.0597 15.1803 19.5875 15.4938 20.3348 15.7554C20.7544 15.4938 21.0752 15.1929 21.2985 14.8533C21.5212 14.5134 21.6329 14.0952 21.6329 13.598L21.6326 13.5987Z" fill="#d9a445"/>
</g>
<defs>
<clipPath id="clip0_109_4175">
<rect width="34.1175" height="32" fill="white" transform="translate(0 0.927246)"/>
</clipPath>
</defs>
</svg>
