<svg width="27" height="26" viewBox="0 0 27 26" fill="none" xmlns="http://www.w3.org/2000/svg">
<path fill-rule="evenodd" clip-rule="evenodd" d="M10.5335 9.41099C10.5335 10.1721 9.91438 10.791 9.15355 10.791H2.86614C2.10532 10.791 1.48617 10.1721 1.48617 9.41099V3.12383C1.48617 2.36301 2.10532 1.74386 2.86614 1.74386H9.03271L10.2857 0.4909C9.93829 0.340998 9.55544 0.25769 9.15355 0.25769H2.86614C1.28561 0.25769 0 1.5433 0 3.12383V9.41099C0 10.9913 1.28561 12.2771 2.86614 12.2771H9.15355C10.7338 12.2771 12.0197 10.9915 12.0197 9.41099V5.06176L10.5335 6.54793V9.41099ZM3.7977 5.22811L2.74684 6.27897L5.7238 9.25568L12.3925 2.58721L11.3417 1.53635L5.7238 7.15422L3.7977 5.22811ZM22.8325 10.791C23.5933 10.791 24.2124 10.1721 24.2124 9.41099V6.54793L25.6986 5.06176V9.41099C25.6986 10.9915 24.4127 12.2771 22.8325 12.2771H16.545C14.9645 12.2771 13.6789 10.9913 13.6789 9.41099V3.12383C13.6789 1.5433 14.9648 0.25769 16.545 0.25769H22.8325C23.2343 0.25769 23.6172 0.340998 23.9646 0.4909L22.7116 1.74386H16.545C15.7842 1.74386 15.1651 2.36301 15.1651 3.12383V9.41099C15.1651 10.1721 15.7842 10.791 16.545 10.791H22.8325ZM17.4766 5.22811L16.4257 6.27897L19.4027 9.25568L26.0714 2.58721L25.0206 1.53635L19.4027 7.15422L17.4766 5.22811ZM9.15355 24.0328C9.91438 24.0328 10.5335 23.4139 10.5335 22.6528V19.7897L12.0197 18.3036V22.6528C12.0197 24.2333 10.7338 25.5189 9.15355 25.5189H2.86614C1.28561 25.5189 0 24.2331 0 22.6528V16.3656C0 14.7851 1.28587 13.4995 2.86614 13.4995H9.15355C9.55544 13.4995 9.93829 13.5828 10.2857 13.7327L9.03271 14.9857H2.86614C2.10532 14.9857 1.48617 15.6048 1.48617 16.3656V22.6528C1.48617 23.4139 2.10532 24.0328 2.86614 24.0328H9.15355ZM3.7977 18.4699L2.74684 19.5208L5.7238 22.4975L12.3925 15.829L11.3417 14.7782L5.7238 20.396L3.7977 18.4699ZM16.5497 25.5968H22.8913C24.4747 25.5968 25.7629 24.3087 25.7629 22.7253V16.2872C25.7629 14.7038 24.4747 13.4157 22.8913 13.4157H16.5497C14.9663 13.4157 13.6781 14.7038 13.6781 16.2872V22.7253C13.6781 24.3087 14.9663 25.5968 16.5497 25.5968ZM15.2209 16.2872C15.2209 15.5544 15.8169 14.9584 16.5497 14.9584H22.8913C23.6241 14.9584 24.2201 15.5544 24.2201 16.2872V22.7253C24.2201 23.4581 23.6241 24.0541 22.8913 24.0541H16.5497C15.8169 24.0541 15.2209 23.4581 15.2209 22.7253V16.2872Z" fill="#d9a445"/>
</svg>
