<svg width="32" height="32" viewBox="0 0 32 32" fill="none" xmlns="http://www.w3.org/2000/svg">
<g clip-path="url(#clip0_109_4196)">
<path d="M15.9339 22.9421C19.8117 22.9421 22.9554 19.7985 22.9554 15.9207C22.9554 12.0428 19.8117 8.89917 15.9339 8.89917C12.056 8.89917 8.9124 12.0428 8.9124 15.9207C8.9124 19.7985 12.056 22.9421 15.9339 22.9421Z" fill="#d9a445"/>
<path d="M15.9339 7.03471L19.1207 3.83471V0H12.7471V3.83471L15.9339 7.03471Z" fill="#d9a445"/>
<path d="M11.4909 8.2248L12.6545 3.86116L10.7372 0.528931L5.20992 3.72893L7.12727 7.04794L11.4909 8.2248Z" fill="#d9a445"/>
<path d="M8.2248 11.4777L7.06117 7.11404L3.72894 5.19669L0.54216 10.724L3.87439 12.6413L8.2248 11.4777Z" fill="#d9a445"/>
<path d="M7.03471 15.9207L3.84793 12.7339H0V19.1074H3.84793L7.03471 15.9207Z" fill="#d9a445"/>
<path d="M8.2248 20.3636L3.87439 19.2L0.54216 21.1173L3.72894 26.6446L7.06117 24.7273L8.2248 20.3636Z" fill="#d9a445"/>
<path d="M11.4777 23.6298L7.12728 24.7934L5.1967 28.1256L10.724 31.3124L12.6546 27.9802L11.4777 23.6298Z" fill="#d9a445"/>
<path d="M15.9339 24.8198L12.7339 28.0066V31.8545H19.1207V28.0066L15.9339 24.8198Z" fill="#d9a445"/>
<path d="M20.3768 23.6298L19.2132 27.9802L21.1306 31.3124L26.6578 28.1256L24.7405 24.7934L20.3768 23.6298Z" fill="#d9a445"/>
<path d="M23.6298 20.3768L24.7934 24.7273L28.1256 26.6578L31.3256 21.1306L27.9934 19.2L23.6298 20.3768Z" fill="#d9a445"/>
<path d="M24.8198 15.9207L28.0198 19.1207H31.8545V12.7339H28.0198L24.8198 15.9207Z" fill="#d9a445"/>
<path d="M23.6298 11.4777L27.9934 12.6413L31.3256 10.724L28.1256 5.19669L24.8066 7.11404L23.6298 11.4777Z" fill="#d9a445"/>
<path d="M20.3768 8.2248L24.7405 7.06116L26.6578 3.72893L21.1306 0.528931L19.2132 3.86116L20.3768 8.2248Z" fill="#d9a445"/>
</g>
<defs>
<clipPath id="clip0_109_4196">
<rect width="31.8545" height="31.8545" fill="white"/>
</clipPath>
</defs>
</svg>
