<svg xmlns="http://www.w3.org/2000/svg" width="238" height="85" viewBox="0 0 238 85">
  <g fill="none" fill-rule="evenodd">
    <path stroke="#fff" stroke-linecap="round" stroke-linejoin="round" stroke-width="2.976" d="M97.8272,78.680361 L97.8272,30.356161 C97.8272,21.464391 105.03515,14.256441 113.92656,14.256441 L128.19466,14.277941 C137.06032,14.295541 144.23829,21.487661 144.23829,30.353671 L144.23829,40.639611 C144.23829,49.531371 137.02998,56.739331 128.13857,56.739331 L107.97697,56.739331 M148.22549,14.250021 L154.41462,14.250021 C158.06375,14.250021 161.02144,17.208061 161.02144,20.857191 L161.02144,56.955531"/>
    <path fill="#fff" fill-rule="nonzero" d="M159.69454,8.657431 L156.88784,5.850378 C156.1911,5.153995 156.1911,4.024753 156.88784,3.32837 L159.69278,0.523081 C160.39057,-0.17436 161.52122,-0.17436 162.21831,0.523081 L165.02325,3.32837 C165.71998,4.024753 165.71998,5.153995 165.02325,5.850378 L162.21655,8.657431 C161.52017,9.353811 160.39128,9.353811 159.69454,8.657431"/>
    <path stroke="#fff" stroke-linecap="round" stroke-linejoin="round" stroke-width="2.976" d="M172.89545,14.217811 L179.03343,14.217811 C182.19114,14.217811 185.21939,15.472291 187.45177,17.704671 L201.80841,32.061311 C203.6679,33.921151 206.68309,33.921151 208.54294,32.061311 L222.84702,17.757231 C225.07975,15.524851 228.10764,14.270371 231.26535,14.270371 L236.25575,14.270371 M172.89545,56.639511 L179.03343,56.639511 C182.19114,56.639511 185.21939,55.385031 187.45177,53.152651 L201.80841,38.796011 C203.6679,36.936171 206.68309,36.936171 208.54294,38.796011 L222.84702,53.100091 C225.07975,55.332471 228.10764,56.586951 231.26535,56.586951 L236.25575,56.586951"/>
    <path fill="#fff" fill-rule="nonzero" d="M61.23338,65.811381 C58.15293,65.811381 55.25556,64.611941 53.07716,62.434591 L41.30038,50.657461 C40.47347,49.828431 39.03237,49.830901 38.20582,50.657461 L26.386,62.477631 C24.20759,64.654971 21.31023,65.854421 18.22977,65.854421 L15.90885,65.854421 L30.82465,80.769865 C35.48272,85.427945 43.03534,85.427945 47.69377,80.769865 L62.6519,65.811381 L61.23338,65.811381 Z M18.22963,24.154501 C21.31009,24.154501 24.20745,25.353941 26.38585,27.531291 L38.20567,39.353221 C39.05692,40.204831 40.44687,40.208011 41.30024,39.352221 L53.07702,27.574381 C55.25542,25.397031 58.15278,24.197591 61.23324,24.197591 L62.65176,24.197591 L47.69398,9.239461 C43.0352,4.581029 35.48258,4.581029 30.8245,9.239461 L15.90941,24.154551 L18.22963,24.154501 Z"/>
    <path fill="#fff" fill-rule="nonzero" d="M75.02445 36.569951L65.98523 27.530731C65.78626 27.610431 65.57071 27.660191 65.34317 27.660191L61.23331 27.660191C59.10853 27.660191 57.02855 28.522031 55.52713 30.024511L43.7507 41.801291C42.64863 42.903371 41.20048 43.454761 39.75373 43.454761 38.30558 43.454761 36.85849 42.903371 35.75676 41.802351L23.93588 29.981471C22.43446 28.478641 20.35448 27.617161 18.2297 27.617161L13.17616 27.617161C12.96061 27.617161 12.75918 27.566361 12.56903 27.494741L3.49382 36.569951C-1.16461 41.228381-1.16461 48.780651 3.49382 53.439081L12.56868 62.513931C12.75918 62.442331 12.96061 62.391521 13.17616 62.391521L18.2297 62.391521C20.35448 62.391521 22.43446 61.530041 23.93588 60.027561L35.7557 48.207741C37.89213 46.073081 41.6164 46.072371 43.7507 48.208741L55.52713 59.984471C57.02855 61.486951 59.10853 62.348781 61.23331 62.348781L65.34317 62.348781C65.57071 62.348781 65.78626 62.398481 65.98523 62.478251L75.02445 53.439031C79.68253 48.780601 79.68253 41.228331 75.02445 36.569901M110.09691 74.572621C109.42981 74.572621 108.65335 74.733131 107.88535 74.910231L107.88535 77.854861C108.41734 78.049241 109.02482 78.142731 109.60726 78.142731 111.08399 78.142731 111.78425 77.644611 111.78425 76.343921 111.78425 75.121191 111.21063 74.572621 110.09691 74.572621M107.38723 80.041385L107.38723 74.217731 107.79257 74.217731 107.83487 74.471371C108.5182 74.310861 109.46329 74.099901 110.13851 74.099901 110.68778 74.099901 111.2106 74.183501 111.6491 74.538401 112.15604 74.952561 112.31621 75.618611 112.31621 76.343921 112.31621 77.104861 112.06256 77.821701 111.37076 78.217871 110.88992 78.488101 110.24011 78.597811 109.65767 78.597811 109.0583 78.597811 108.48469 78.504711 107.88532 78.327941L107.88532 80.041385 107.38723 80.041385zM116.02383 74.555051C114.54675 74.555051 113.88846 75.019661 113.88846 76.319291 113.88846 77.576591 114.53828 78.142451 116.02383 78.142451 117.49209 78.142451 118.15037 77.686311 118.15037 76.386671 118.15037 75.129371 117.50091 74.555051 116.02383 74.555051M117.92248 78.142451C117.43282 78.496281 116.77489 78.597881 116.02383 78.597881 115.25583 78.597881 114.59719 78.488171 114.11636 78.142451 113.57626 77.762861 113.35647 77.137741 113.35647 76.353511 113.35647 75.576341 113.57626 74.944161 114.11636 74.555051 114.59719 74.209681 115.25583 74.099611 116.02383 74.099611 116.78301 74.099611 117.43282 74.209681 117.92248 74.555051 118.4714 74.944161 118.68201 75.576341 118.68201 76.343991 118.68201 77.129621 118.46258 77.762861 117.92248 78.142451"/>
    <polygon fill="#fff" fill-rule="nonzero" points="124.914 78.48 123.268 74.944 123.234 74.944 121.614 78.48 121.166 78.48 119.411 74.218 119.96 74.218 121.42 77.796 121.454 77.796 123.04 74.218 123.495 74.218 125.125 77.796 125.158 77.796 126.585 74.218 127.116 74.218 125.361 78.48"/>
    <path fill="#fff" fill-rule="nonzero" d="M130.29961,74.546761 C128.9326,74.546761 128.46835,75.154241 128.38368,76.032661 L132.21555,76.032661 C132.17355,75.062171 131.6751,74.546761 130.29961,74.546761 M130.28301,78.597711 C129.46386,78.597711 128.93258,78.479881 128.51066,78.124981 C128.01254,77.694601 127.84356,77.070531 127.84356,76.353331 C127.84356,75.669651 128.0718,74.943991 128.63731,74.530181 C129.10968,74.201391 129.69211,74.099791 130.2996,74.099791 C130.84852,74.099791 131.4814,74.158691 132.00422,74.513601 C132.62052,74.926701 132.73905,75.653071 132.73905,76.479631 L128.36708,76.479631 C128.38368,77.356991 128.67082,78.134161 130.32464,78.134161 C131.10993,78.134161 131.84406,78.007161 132.52774,77.888981 L132.52774,78.335951 C131.81866,78.463301 131.03373,78.597711 130.28301,78.597711 M134.16779,78.479881 L134.16779,74.217621 L134.57278,74.217621 L134.61548,74.471271 C135.51824,74.243721 135.94016,74.099791 136.73356,74.099791 L136.79286,74.099791 L136.79286,74.572511 L136.67432,74.572511 C136.00793,74.572511 135.60294,74.664911 134.66631,74.910121 L134.66631,78.479881 L134.16779,78.479881 Z M139.68477,74.546761 C138.31776,74.546761 137.8535,75.154241 137.76884,76.032661 L141.60071,76.032661 C141.55871,75.062171 141.06025,74.546761 139.68477,74.546761 M139.66817,78.597711 C138.84902,78.597711 138.31774,78.479881 137.89582,78.124981 C137.39734,77.694601 137.22871,77.070531 137.22871,76.353331 C137.22871,75.669651 137.45696,74.943991 138.02246,74.530181 C138.49483,74.201391 139.07727,74.099791 139.68475,74.099791 C140.23367,74.099791 140.86656,74.158691 141.38937,74.513601 C142.00568,74.926701 142.12421,75.653071 142.12421,76.479631 L137.75224,76.479631 C137.76884,77.356991 138.05598,78.134161 139.7098,78.134161 C140.49473,78.134161 141.22886,78.007161 141.9129,77.888981 L141.9129,78.335951 C141.20381,78.463301 140.41888,78.597711 139.66817,78.597711 M147.57885,74.842701 C147.04721,74.648321 146.43973,74.555191 145.85729,74.555191 C144.38056,74.555191 143.67959,75.054011 143.67959,76.353291 C143.67959,77.584841 144.25356,78.124941 145.36728,78.124941 C146.03438,78.124941 146.81085,77.964431 147.57885,77.795801 L147.57885,74.842701 Z M147.67195,78.479841 L147.62965,78.226191 C146.94596,78.386711 146.00052,78.598021 145.3253,78.598021 C144.77744,78.598021 144.25356,78.522121 143.81471,78.159161 C143.30847,77.745361 143.14796,77.078611 143.14796,76.353291 C143.14796,75.593761 143.40125,74.875861 144.09305,74.487811 C144.57424,74.209461 145.22405,74.099751 145.81496,74.099751 C146.40586,74.099751 146.97983,74.201351 147.57885,74.369981 L147.57885,72.420531 L148.07697,72.420531 L148.07697,78.479841 L147.67195,78.479841 Z M155.37816,74.572621 C154.71106,74.572621 153.9346,74.733131 153.1666,74.910231 L153.1666,77.846751 C153.70706,78.049241 154.30607,78.142731 154.88851,78.142731 C156.36524,78.142731 157.0655,77.644611 157.0655,76.343921 C157.0655,75.121191 156.49188,74.572621 155.37816,74.572621 M156.6524,78.217871 C156.17121,78.488101 155.52139,78.597811 154.93896,78.597811 C154.30607,78.597811 153.67319,78.488101 153.03184,78.277141 L153.00644,78.479991 L152.66848,78.479991 L152.66848,72.420321 L153.1666,72.420321 L153.1666,74.453731 C153.85028,74.302751 154.76997,74.099901 155.41979,74.099901 C155.96907,74.099901 156.49188,74.183501 156.93039,74.538401 C157.43733,74.952561 157.59749,75.618611 157.59749,76.343921 C157.59749,77.104861 157.34384,77.821701 156.6524,78.217871 M158.25828,80.116805 L158.25828,79.653255 C158.50275,79.677955 158.73135,79.695555 158.89151,79.695555 C159.50782,79.695555 159.87858,79.517755 160.22466,78.817141 L160.38517,78.479881 L158.15738,74.217621 L158.73135,74.217621 L160.63882,77.897091 L160.67232,77.897091 L162.48666,74.217621 L163.05216,74.217621 L160.65539,79.003401 C160.21653,79.872655 159.74381,80.159105 158.87457,80.159105 C158.68018,80.159105 158.46958,80.142505 158.25826,80.116805 M169.91511,76.049171 L168.26129,76.049171 L168.26129,77.543541 L169.92323,77.543541 C171.0627,77.543541 171.49344,77.416181 171.49344,76.792121 C171.49344,76.124661 170.90289,76.049171 169.91511,76.049171 M169.61172,73.627001 L168.26129,73.627001 L168.26129,75.145711 L169.61984,75.145711 C170.74238,75.145711 171.18935,75.011301 171.18935,74.378061 C171.18935,73.703551 170.6242,73.627001 169.61172,73.627001 M172.17712,78.075171 C171.56893,78.463231 170.8348,78.479811 169.49319,78.479811 L166.96977,78.479811 L166.96977,72.698841 L169.43428,72.698841 C170.59033,72.698841 171.29906,72.715441 171.88996,73.070311 C172.31224,73.323611 172.48051,73.711661 172.48051,74.217901 C172.48051,74.825031 172.22792,75.230731 171.56893,75.500951 L171.56893,75.534151 C172.31224,75.703841 172.79307,76.083431 172.79307,76.901871 C172.79307,77.458561 172.59058,77.821571 172.17712,78.075211 M177.84192,76.690841 C177.34345,76.648141 176.83756,76.623441 176.30593,76.623441 C175.43668,76.623441 175.13224,76.800531 175.13224,77.196701 C175.13224,77.568181 175.38588,77.771031 176.05228,77.771031 C176.60932,77.771031 177.27607,77.644731 177.84192,77.517381 L177.84192,76.690841 Z M178.09486,78.479781 L178.06096,78.226481 C177.33495,78.404281 176.49146,78.597961 175.74851,78.597961 C175.29236,78.597961 174.80341,78.538661 174.45699,78.285401 C174.13702,78.057851 173.98462,77.686381 173.98462,77.255991 C173.98462,76.774451 174.19593,76.327481 174.70181,76.099941 C175.14914,75.888981 175.74851,75.872401 176.29743,75.872401 C176.7444,75.872401 177.34341,75.897101 177.84189,75.931301 L177.84189,75.854801 C177.84189,75.188401 177.40268,74.968971 176.2043,74.968971 C175.74004,74.968971 175.17454,74.993671 174.63443,75.044471 L174.63443,74.183651 C175.23345,74.133951 175.90902,74.099651 176.46606,74.099651 C177.2083,74.099651 177.977,74.158951 178.44937,74.496171 C178.93832,74.842601 179.03181,75.323791 179.03181,75.955961 L179.03181,78.479741 L178.09486,78.479781 Z M184.59603,78.479881 L184.59603,76.124741 C184.59603,75.348981 184.19986,75.070281 183.49042,75.070281 C182.96761,75.070281 182.30932,75.205041 181.75194,75.340511 L181.75194,78.479881 L180.56202,78.479881 L180.56202,74.217621 L181.53251,74.217621 L181.57481,74.487851 C182.32552,74.294171 183.1616,74.099791 183.85375,74.099791 C184.37657,74.099791 184.90856,74.175291 185.31355,74.538651 C185.6508,74.842741 185.7778,75.263961 185.7778,75.872151 L185.7778,78.479881 L184.59603,78.479881 Z M189.13977,78.597851 C188.5912,78.597851 187.99148,78.522351 187.55298,78.150881 C187.02981,77.728611 186.87776,77.062211 186.87776,76.343951 C186.87776,75.669441 187.09719,74.934961 187.747,74.521861 C188.27899,74.175431 188.93692,74.099931 189.62061,74.099931 C190.11026,74.099931 190.59145,74.133831 191.12274,74.183531 L191.12274,75.095111 C190.69199,75.053811 190.17729,75.019611 189.76419,75.019611 C188.63283,75.019611 188.10155,75.374501 188.10155,76.353461 C188.10155,77.273501 188.49807,77.669671 189.42623,77.669671 C189.96633,77.669671 190.59992,77.568421 191.21587,77.450241 L191.21587,78.327601 C190.54877,78.463421 189.8231,78.597851 189.13977,78.597851 M194.73081,74.993761 C193.5998,74.993761 193.10168,75.348651 193.10168,76.319151 C193.10168,77.289991 193.59133,77.703801 194.73081,77.703801 C195.85299,77.703801 196.34229,77.357021 196.34229,76.386531 C196.34229,75.416031 195.86181,74.993761 194.73081,74.993761 M196.77304,78.150771 C196.24987,78.504601 195.56618,78.597741 194.73081,78.597741 C193.87814,78.597741 193.19481,78.496491 192.68011,78.150771 C192.08921,77.762711 191.87789,77.121361 191.87789,76.353371 C191.87789,75.584661 192.08921,74.934851 192.68011,74.546791 C193.19481,74.201071 193.87814,74.099821 194.73081,74.099821 C195.575,74.099821 196.24987,74.201071 196.77304,74.546791 C197.36394,74.934851 197.56643,75.584661 197.56643,76.344191 C197.56643,77.112901 197.35547,77.762711 196.77304,78.150771 M204.43667,78.597881 C203.71983,78.597881 202.94337,78.480021 202.36058,77.998831 C201.66878,77.424511 201.45782,76.538691 201.45782,75.584421 C201.45782,74.732821 201.72769,73.719991 202.63081,73.129441 C203.33107,72.674011 204.20031,72.580871 205.07802,72.580871 C205.72008,72.580871 206.37801,72.623171 207.09556,72.682121 L207.09556,73.719991 C206.47926,73.669191 205.72008,73.626891 205.12918,73.626891 C203.48312,73.626891 202.78285,74.252011 202.78285,75.584451 C202.78285,76.944411 203.43232,77.551891 204.64799,77.551891 C205.44103,77.551891 206.32721,77.391381 207.22185,77.205111 L207.22185,78.234521 C206.32721,78.412671 205.39023,78.597881 204.43667,78.597881 M210.7188,74.859251 C209.73102,74.859251 209.35108,75.214141 209.27523,75.863961 L212.14508,75.863961 C212.11088,75.171811 211.70587,74.859251 210.7188,74.859251 M210.541,78.597991 C209.84074,78.597991 209.20785,78.513991 208.73513,78.124911 C208.22889,77.703701 208.05145,77.070461 208.05145,76.344091 C208.05145,75.694271 208.26276,74.968961 208.85366,74.546691 C209.37648,74.175571 210.04358,74.099721 210.7188,74.099721 C211.32628,74.099721 212.04383,74.167121 212.56665,74.530111 C213.25069,75.011301 213.3096,75.754251 213.31771,76.631611 L209.26712,76.631611 C209.29212,77.281771 209.63824,77.703701 210.83663,77.703701 C211.57923,77.703701 212.40614,77.593981 213.10711,77.484271 L213.10711,78.319651 C212.28831,78.455111 211.39366,78.597991 210.541,78.597991 M218.6122,78.479881 L218.6122,76.124741 C218.6122,75.348981 218.21603,75.070281 217.5066,75.070281 C216.98343,75.070281 216.3255,75.205041 215.76811,75.340511 L215.76811,78.479881 L214.57819,78.479881 L214.57819,74.217621 L215.54868,74.217621 L215.59098,74.487851 C216.34169,74.294171 217.17778,74.099791 217.86993,74.099791 C218.39274,74.099791 218.92473,74.175291 219.32972,74.538651 C219.66698,74.842741 219.79398,75.263961 219.79398,75.872151 L219.79398,78.479881 L218.6122,78.479881 Z M223.1811,78.597861 C222.60748,78.597861 222.08396,78.437341 221.79715,77.990371 C221.58619,77.686271 221.48459,77.273521 221.48459,76.699201 L221.48459,75.103591 L220.62381,75.103591 L220.62381,74.217761 L221.48459,74.217761 L221.61159,72.926241 L222.6664,72.926241 L222.6664,74.217761 L224.34562,74.217761 L224.34562,75.103591 L222.6664,75.103591 L222.6664,76.471311 C222.6664,76.800451 222.6914,77.078791 222.78422,77.281641 C222.91087,77.568441 223.18921,77.677811 223.56069,77.677811 C223.83903,77.677811 224.17699,77.635511 224.413,77.594211 L224.413,78.445811 C224.02494,78.522411 223.57727,78.597861 223.1811,78.597861 M225.50654,78.479881 L225.50654,74.217621 L226.47738,74.217621 L226.51968,74.487851 C227.30461,74.268421 227.8867,74.099791 228.62965,74.099791 C228.66315,74.099791 228.71395,74.099791 228.78099,74.107791 L228.78099,75.120961 C228.64587,75.112961 228.48571,75.112961 228.36753,75.112961 C227.7851,75.112961 227.34659,75.179961 226.69642,75.332391 L226.69642,78.479881 L225.50654,78.479881 Z M233.10745,76.690841 C232.60933,76.648141 232.1031,76.623441 231.57146,76.623441 C230.70221,76.623441 230.39777,76.800531 230.39777,77.196701 C230.39777,77.568181 230.65141,77.771031 231.31781,77.771031 C231.8752,77.771031 232.5416,77.644731 233.10745,77.517381 L233.10745,76.690841 Z M233.3604,78.479781 L233.3269,78.226481 C232.60088,78.404281 231.75703,78.597961 231.01408,78.597961 C230.5583,78.597961 230.06899,78.538661 229.72256,78.285401 C229.4026,78.057851 229.2502,77.686381 229.2502,77.255991 C229.2502,76.774451 229.46151,76.327481 229.96775,76.099941 C230.41507,75.888981 231.01408,75.872401 231.56301,75.872401 C232.01033,75.872401 232.60935,75.897101 233.10747,75.931301 L233.10747,75.854801 C233.10747,75.188401 232.66826,74.968971 231.46987,74.968971 C231.00597,74.968971 230.44011,74.993671 229.90001,75.044471 L229.90001,74.183651 C230.49903,74.133951 231.1746,74.099651 231.73199,74.099651 C232.47423,74.099651 233.24258,74.158951 233.71495,74.496171 C234.20425,74.842601 234.29739,75.323791 234.29739,75.955961 L234.29739,78.479741 L233.3604,78.479781 Z"/>
    <polygon fill="#fff" fill-rule="nonzero" points="235.828 72.421 237.018 72.421 237.018 78.48 235.828 78.48"/>
  </g>
</svg>
