<svg width="32" height="33" viewBox="0 0 32 33" fill="none" xmlns="http://www.w3.org/2000/svg">
<g clip-path="url(#clip0_109_4182)">
<path d="M31.8304 10.1586C28.8659 7.36462 26.1189 4.30727 23.0629 1.61887C22.8894 1.46623 22.7929 1.19303 22.6895 1.10968C22.4864 0.946091 22.2323 0.93679 21.9848 0.927124L9.19793 0.960681L0 10.1586V23.5931L9.0617 32.9273H22.6325L31.9338 23.4241L31.8304 10.1586ZM22.6615 23.6903C22.219 25.443 21.2045 27.2113 19.6293 28.1527C17.6988 28.0152 15.1468 28.4669 13.2908 28.1531C11.1182 27.7858 10.195 24.2506 10.0575 22.3927C9.77406 18.5596 10.2678 14.4045 10.0527 10.5363C10.2327 8.98248 11.9635 9.57228 11.9635 10.2668V16.3306L12.3488 16.1026L12.4338 8.28416C12.7774 7.17696 14.5527 7.73557 14.5527 8.35893V16.0579H15.0978V7.26887C15.0978 7.18097 15.5869 6.57949 15.7033 6.51256C16.2628 6.1903 17.4143 6.54539 17.4143 7.13264V16.0581H17.9594V8.49535C17.9594 8.45632 18.2354 7.80469 18.2629 7.77697C18.726 7.30918 19.8313 7.54444 19.9743 8.25206L20.0042 19.193C19.1121 19.1246 18.1363 19.2712 17.3685 19.7594C17.0837 19.9405 15.3737 21.6705 15.6438 21.9169C15.9602 22.2054 16.3148 21.3381 16.4645 21.1712C17.4639 20.0565 18.6092 19.226 20.1976 19.7215L20.3495 19.6075C20.5993 19.2079 20.3032 15.2511 20.4102 14.3523C20.5835 12.8975 22.8267 12.9699 23.0049 14.488C23.2412 16.5026 23.1482 21.7659 22.6624 23.6903H22.6615Z" fill="#d9a445"/>
</g>
<defs>
<clipPath id="clip0_109_4182">
<rect width="31.9338" height="32" fill="white" transform="translate(0 0.927246)"/>
</clipPath>
</defs>
</svg>
