<?xml version="1.0" encoding="UTF-8" standalone="no"?>
<svg width="50px" height="51px" viewBox="0 0 50 51" version="1.1" xmlns="http://www.w3.org/2000/svg" xmlns:xlink="http://www.w3.org/1999/xlink">
    <!-- Generator: Sketch 39.1 (31720) - http://www.bohemiancoding.com/sketch -->
    <title>linkedin</title>
    <desc>Created with Sketch.</desc>
    <defs></defs>
    <g id="Page-1" stroke="none" stroke-width="1" fill="none" fill-rule="evenodd">
        <g id="linkedin" fill="#FFFFFF">
            <g id="Group">
                <path d="M27.071,23.101 L27.071,23.024 C27.055,23.05 27.038,23.076 27.021,23.101 L27.071,23.101 L27.071,23.101 Z" id="Shape"></path>
                <path d="M46.265,0.667 L4.145,0.667 C2.129,0.667 0.494,2.263 0.494,4.23 L0.494,46.843 C0.494,48.809 2.129,50.405 4.145,50.405 L46.265,50.405 C48.284,50.405 49.919,48.808 49.919,46.843 L49.919,4.23 C49.919,2.262 48.283,0.667 46.265,0.667 L46.265,0.667 Z M15.475,42.304 L8.01,42.304 L8.01,19.845 L15.475,19.845 L15.475,42.304 L15.475,42.304 Z M11.743,16.777 L11.693,16.777 C9.189,16.777 7.569,15.052 7.569,12.897 C7.569,10.694 9.239,9.017 11.792,9.017 C14.346,9.017 15.917,10.694 15.967,12.897 C15.967,15.052 14.345,16.777 11.743,16.777 L11.743,16.777 Z M42.394,42.304 L34.929,42.304 L34.929,30.286 C34.929,27.268 33.849,25.208 31.148,25.208 C29.086,25.208 27.858,26.597 27.317,27.939 C27.12,28.418 27.072,29.088 27.072,29.76 L27.072,42.303 L19.607,42.303 C19.607,42.303 19.705,21.949 19.607,19.844 L27.072,19.844 L27.072,23.023 C28.064,21.493 29.838,19.314 33.801,19.314 C38.712,19.314 42.395,22.525 42.395,29.424 L42.395,42.304 L42.394,42.304 Z" id="Shape"></path>
            </g>
        </g>
    </g>
</svg>