<svg width="56" height="78" viewBox="0 0 56 78" fill="none" xmlns="http://www.w3.org/2000/svg">
<path d="M37.8317 1L37.3376 1.01367C36.8644 1.04074 36.4518 1.10863 36.1003 1.2168C35.6676 1.36105 35.3607 1.52282 35.1803 1.70312L34.9098 2.00098C34.8017 2.12715 34.6761 2.28075 34.5319 2.46094L3.26043 48.7725C2.07017 50.5398 1.34884 52.2716 1.09636 53.9668C0.807831 55.662 1.16849 57.1047 2.1784 58.2949C3.09136 59.4106 4.57461 60.0035 6.62859 60.0732L7.04754 60.0801H28.5261L25.3337 72.957L25.2673 73.3027C25.145 74.0956 25.257 74.792 25.6042 75.3916C25.9762 76.0003 26.5705 76.3234 27.3864 76.3613L27.5524 76.3652H36.9665L37.2897 76.3555C38.7631 76.2667 39.7257 75.5569 40.1774 74.2256L40.2663 73.9307L43.7829 60.0801H48.8141C50.6896 60.0801 51.953 59.0165 52.6022 56.8887L54.7663 51.207C55.2395 49.1447 54.5238 48.0488 52.6198 47.9199L52.2233 47.9072V46.9072C53.4508 46.9073 54.5994 47.2109 55.3014 48.1221C55.996 49.0237 56.0188 50.2192 55.7409 51.4307L55.7253 51.499L55.7009 51.5635L53.5427 57.2236C53.1804 58.39 52.6236 59.363 51.8122 60.0469C51.0285 60.7073 50.0813 61.0374 49.027 61.0762L48.8141 61.0801H44.5612L41.236 74.1768L41.2331 74.1885C40.972 75.1677 40.4821 75.9924 39.7106 76.5615C38.9443 77.1268 38.001 77.3652 36.9665 77.3652H27.5524C26.3781 77.3652 25.3663 76.9186 24.7516 75.9131L24.7448 75.9023L24.7389 75.8926C24.189 74.9426 24.0996 73.8601 24.36 72.7314L24.361 72.7236L24.363 72.7158L27.2477 61.0801H7.04754C4.62241 61.0801 2.64458 60.444 1.40398 58.9277C0.19148 57.4903 -0.221277 55.7453 0.110036 53.7988C0.391828 51.9319 1.18123 50.0686 2.43035 48.2139L2.43133 48.2129L33.7253 1.86816L33.7507 1.83594C34.0408 1.47323 34.2867 1.18276 34.4733 0.996094C34.8188 0.65061 35.3027 0.427995 35.7839 0.267578L35.7956 0.263672L35.8063 0.260742C36.3999 0.0780974 37.0831 1.78826e-06 37.8317 0V1ZM48.7067 0C49.4229 3.64405e-05 50.11 0.124118 50.6813 0.466797C51.2815 0.826915 51.6681 1.37826 51.8376 2.04688C52.1624 3.29303 51.6868 4.53751 50.8219 5.6875L21.7438 46.9609H30.8307L33.778 35.2197L33.7819 35.2061C34.043 34.2268 34.5328 33.4022 35.3044 32.833C36.0707 32.2678 37.0139 32.0293 38.0485 32.0293V33.0293L37.7243 33.0381C36.1458 33.1333 35.1535 33.9423 34.7477 35.4639L31.61 47.9609H19.8151L50.0046 5.1123C50.798 4.06647 51.087 3.12832 50.8708 2.29883C50.6679 1.48727 50.0209 1.05559 48.9303 1.00488L48.7067 1V0ZM47.4616 32.0293C48.6607 32.0293 49.6716 32.5135 50.2751 33.5557C50.825 34.5056 50.9154 35.5881 50.655 36.7168L50.652 36.7256L50.6501 36.7354L48.0954 46.9072H52.2233V47.9072H46.8132L49.6803 36.4912C49.8832 35.612 49.8163 34.8438 49.4802 34.1865L49.4098 34.0566C49.0379 33.4144 48.4441 33.0735 47.6286 33.0332L47.4616 33.0293V32.0293ZM47.4616 32.0293V33.0293H38.0485V32.0293H47.4616ZM48.7067 0V1H37.8317V0H48.7067Z" fill="#D9A445"/>
</svg>
