<svg width="44" height="44" viewBox="0 0 44 44" fill="none" xmlns="http://www.w3.org/2000/svg">
<rect width="44" height="44" rx="22" fill="#D9A445"/>
<g clip-path="url(#clip0_1098_19406)">
<path d="M15.0475 28.0915C13.2388 26.4449 12.1005 24.1894 11.8503 21.7563C11.6001 19.3233 12.2554 16.8833 13.6911 14.9031C15.1268 12.9228 17.242 11.5413 19.6323 11.0226C22.0226 10.5038 24.5202 10.8844 26.6475 12.0915" stroke="#2D2D2D" stroke-width="1.56667" stroke-linecap="round" stroke-linejoin="round"/>
<path d="M11.5609 28.0205C10.2973 30.234 9.87442 31.9517 10.588 32.6663C11.6713 33.7486 15.0609 32.2184 18.9859 29.1059" stroke="#2D2D2D" stroke-width="1.56667" stroke-linecap="round" stroke-linejoin="round"/>
<path d="M23.4831 28.3206L19.7539 24.5914L28.0424 16.3029C28.7185 15.6271 29.5658 15.1482 30.4935 14.9175L32.6258 14.382C32.773 14.3454 32.9272 14.3474 33.0733 14.388C33.2195 14.4285 33.3527 14.5062 33.46 14.6135C33.5672 14.7207 33.6449 14.8539 33.6855 15.0001C33.726 15.1463 33.7281 15.3005 33.6914 15.4477L33.1581 17.581C32.9263 18.5084 32.4467 19.3553 31.7706 20.031L23.4831 28.3206Z" stroke="#2D2D2D" stroke-width="1.56667" stroke-linecap="round" stroke-linejoin="round"/>
<path d="M19.7503 24.5902L16.6961 23.5725C16.6248 23.5489 16.5607 23.5074 16.5099 23.452C16.4592 23.3966 16.4235 23.3291 16.4063 23.2559C16.389 23.1828 16.3908 23.1065 16.4115 23.0342C16.4321 22.962 16.471 22.8963 16.5243 22.8433L17.5888 21.7787C18.0516 21.316 18.6341 20.9913 19.2711 20.841C19.908 20.6906 20.5742 20.7207 21.1951 20.9277L22.8618 21.4818L19.7503 24.5902Z" stroke="#2D2D2D" stroke-width="1.56667" stroke-linecap="round" stroke-linejoin="round"/>
<path d="M23.4812 28.32L24.4989 31.3753C24.5225 31.4466 24.564 31.5107 24.6194 31.5614C24.6748 31.6122 24.7423 31.6479 24.8154 31.6651C24.8886 31.6824 24.9649 31.6806 25.0371 31.6599C25.1094 31.6393 25.1751 31.6004 25.2281 31.5471L26.2927 30.4825C26.7554 30.0198 27.0801 29.4372 27.2304 28.8003C27.3807 28.1634 27.3507 27.4971 27.1437 26.8763L26.5895 25.2096L23.4812 28.32Z" stroke="#2D2D2D" stroke-width="1.56667" stroke-linecap="round" stroke-linejoin="round"/>
</g>
<defs>
<clipPath id="clip0_1098_19406">
<rect width="25" height="25" fill="white" transform="translate(9.5 9.5)"/>
</clipPath>
</defs>
</svg>
