<svg width="44" height="44" viewBox="0 0 44 44" fill="none" xmlns="http://www.w3.org/2000/svg">
<rect width="44" height="44" rx="22" fill="#D9A445"/>
<path d="M3.84009 21.9999H12.5607" stroke="#2D2D2D" stroke-width="1.61601" stroke-linecap="round" stroke-linejoin="round"/>
<path d="M11.0042 17.4786H15.1731" stroke="#2D2D2D" stroke-width="1.61601" stroke-linecap="round" stroke-linejoin="round"/>
<path d="M7.00244 17.4786H8.58355" stroke="#2D2D2D" stroke-width="1.61601" stroke-linecap="round" stroke-linejoin="round"/>
<path d="M8.85864 26.5218H17.5793" stroke="#2D2D2D" stroke-width="1.61601" stroke-linecap="round" stroke-linejoin="round"/>
<path d="M13.9099 14.0341C16.0443 11.7419 19.0889 10.3082 22.4683 10.3082C28.9256 10.3082 34.1601 15.5428 34.1601 22C34.1601 28.4573 28.9256 33.6919 22.4683 33.6919C19.0889 33.6919 16.0447 32.2581 13.9099 29.966" stroke="#2D2D2D" stroke-width="1.61601" stroke-linecap="round" stroke-linejoin="round"/>
<path d="M19.5362 24.5991C19.5362 26.0345 20.8487 27.198 22.468 27.198C24.0872 27.198 25.3997 26.0345 25.3997 24.5991C25.3997 21.1392 19.5359 22.8357 19.5359 19.4017C19.5359 17.9664 20.8484 16.8028 22.4677 16.8028C24.0869 16.8028 25.3994 17.9664 25.3994 19.4017" stroke="#2D2D2D" stroke-width="1.61601" stroke-linecap="round" stroke-linejoin="round"/>
<path d="M22.4685 27.198V28.504" stroke="#2D2D2D" stroke-width="1.61601" stroke-linecap="round" stroke-linejoin="round"/>
<path d="M22.4685 15.4966V16.8026" stroke="#2D2D2D" stroke-width="1.61601" stroke-linecap="round" stroke-linejoin="round"/>
</svg>
