<svg width="21" height="21" viewBox="0 0 21 21" fill="none" xmlns="http://www.w3.org/2000/svg">
<g clip-path="url(#clip0_677_1961)">
<path d="M12.3359 13.8862H11.7109C11.3794 13.8862 11.0614 13.7546 10.827 13.5201C10.5926 13.2857 10.4609 12.9677 10.4609 12.6362V9.51123C10.4609 9.34548 10.3951 9.18648 10.2779 9.06931C10.1607 8.95206 10.0017 8.88623 9.83594 8.88623H9.21094" stroke="white" stroke-width="1.25" stroke-linecap="round" stroke-linejoin="round"/>
<path d="M10.1484 6.38623C9.97585 6.38623 9.83594 6.24632 9.83594 6.07373C9.83594 5.90114 9.97585 5.76123 10.1484 5.76123" stroke="white" stroke-width="1.25"/>
<path d="M10.1484 6.38623C10.321 6.38623 10.4609 6.24632 10.4609 6.07373C10.4609 5.90114 10.321 5.76123 10.1484 5.76123" stroke="white" stroke-width="1.25"/>
<path d="M10.4609 19.5112C15.6386 19.5112 19.8359 15.3139 19.8359 10.1362C19.8359 4.95856 15.6386 0.76123 10.4609 0.76123C5.28327 0.76123 1.08594 4.95856 1.08594 10.1362C1.08594 15.3139 5.28327 19.5112 10.4609 19.5112Z" stroke="white" stroke-width="1.25" stroke-linecap="round" stroke-linejoin="round"/>
</g>
<defs>
<clipPath id="clip0_677_1961">
<rect width="20" height="20" fill="white" transform="translate(0.460938 0.13623)"/>
</clipPath>
</defs>
</svg>
