<svg width="44" height="44" viewBox="0 0 44 44" fill="none" xmlns="http://www.w3.org/2000/svg">
<rect width="44" height="44" rx="22" fill="#D9A445"/>
<g clip-path="url(#clip0_1098_19459)">
<path d="M18.0938 25.125L19.8333 23.8125C20.0116 23.679 20.2153 23.5834 20.4319 23.5314C20.6484 23.4794 20.8734 23.4722 21.0928 23.5103C21.3123 23.5483 21.5216 23.6308 21.7081 23.7526C21.8945 23.8744 22.0541 24.0331 22.1771 24.2188V24.2188C22.3558 24.4872 22.4511 24.8025 22.4511 25.125C22.4511 25.4475 22.3558 25.7628 22.1771 26.0313L20.4688 28.6042C19.9341 29.3827 19.1799 29.9847 18.3021 30.3333L15.75 31.375V33.7188" stroke="#2D2D2D" stroke-width="1.5625" stroke-linecap="round" stroke-linejoin="round"/>
<path d="M18.875 18.6146L15.125 20.2188C14.0069 20.6867 13.1117 21.567 12.625 22.6771L11.4375 25.5417C11.1886 26.1244 11.061 26.7518 11.0625 27.3854V33.7188" stroke="#2D2D2D" stroke-width="1.5625" stroke-linecap="round" stroke-linejoin="round"/>
<path d="M18.875 24.5417V13.4062C18.875 12.5774 19.2042 11.7826 19.7903 11.1965C20.3763 10.6105 21.1712 10.2812 22 10.2812H29.8125C30.6413 10.2812 31.4362 10.6105 32.0222 11.1965C32.6083 11.7826 32.9375 12.5774 32.9375 13.4062V30.5937C32.9375 31.4226 32.6083 32.2174 32.0222 32.8035C31.4362 33.3895 30.6413 33.7187 29.8125 33.7187H22C21.1712 33.7187 20.3763 33.3895 19.7903 32.8035C19.2042 32.2174 18.875 31.4226 18.875 30.5937V30.0833" stroke="#2D2D2D" stroke-width="1.5625" stroke-linecap="round" stroke-linejoin="round"/>
<path d="M20.875 27.9896H32.9375" stroke="#2D2D2D" stroke-width="1.5625" stroke-linecap="round" stroke-linejoin="round"/>
</g>
<defs>
<clipPath id="clip0_1098_19459">
<rect width="25" height="25" fill="white" transform="translate(9.5 9.5)"/>
</clipPath>
</defs>
</svg>
