<svg width="44" height="44" viewBox="0 0 44 44" fill="none" xmlns="http://www.w3.org/2000/svg">
<rect width="44" height="44" rx="22" fill="#17BB00"/>
<g clip-path="url(#clip0_869_21568)">
<path d="M29.25 14.75H13.25C12.6977 14.75 12.25 15.1977 12.25 15.75V31.75C12.25 32.3023 12.6977 32.75 13.25 32.75H29.25C29.8023 32.75 30.25 32.3023 30.25 31.75V15.75C30.25 15.1977 29.8023 14.75 29.25 14.75Z" stroke="white" stroke-width="1.5" stroke-linecap="round" stroke-linejoin="round"/>
<path d="M12.25 17.75H30.25" stroke="white" stroke-width="1.5" stroke-linecap="round" stroke-linejoin="round"/>
<path d="M12.25 25.25H30.25" stroke="white" stroke-width="1.5" stroke-linecap="round" stroke-linejoin="round"/>
<path d="M18.25 17.75V25.25" stroke="white" stroke-width="1.5" stroke-linecap="round" stroke-linejoin="round"/>
<path d="M24.25 17.75V25.25" stroke="white" stroke-width="1.5" stroke-linecap="round" stroke-linejoin="round"/>
<path d="M28 14.75V14.375C28 12.1 24.978 10.25 21.25 10.25C17.522 10.25 14.5 12.1 14.5 14.375V14.75" stroke="white" stroke-width="1.5" stroke-linecap="round" stroke-linejoin="round"/>
<path d="M15.25 29.75H18.25" stroke="white" stroke-width="1.5" stroke-linecap="round" stroke-linejoin="round"/>
<path d="M33.25 21.5V26.75C33.25 27.5456 32.9339 28.3087 32.3713 28.8713C31.8087 29.4339 31.0456 29.75 30.25 29.75" stroke="white" stroke-width="1.5" stroke-linecap="round" stroke-linejoin="round"/>
<path d="M33.25 21.5C34.0784 21.5 34.75 20.8284 34.75 20C34.75 19.1716 34.0784 18.5 33.25 18.5C32.4216 18.5 31.75 19.1716 31.75 20C31.75 20.8284 32.4216 21.5 33.25 21.5Z" stroke="white" stroke-width="1.5" stroke-linecap="round" stroke-linejoin="round"/>
<path d="M15.25 21.875C15.0429 21.875 14.875 21.7071 14.875 21.5C14.875 21.2929 15.0429 21.125 15.25 21.125" stroke="white" stroke-width="1.5"/>
<path d="M15.25 21.875C15.4571 21.875 15.625 21.7071 15.625 21.5C15.625 21.2929 15.4571 21.125 15.25 21.125" stroke="white" stroke-width="1.5"/>
<path d="M21.25 21.875C21.0429 21.875 20.875 21.7071 20.875 21.5C20.875 21.2929 21.0429 21.125 21.25 21.125" stroke="white" stroke-width="1.5"/>
<path d="M21.25 21.875C21.4571 21.875 21.625 21.7071 21.625 21.5C21.625 21.2929 21.4571 21.125 21.25 21.125" stroke="white" stroke-width="1.5"/>
<path d="M27.25 21.875C27.0429 21.875 26.875 21.7071 26.875 21.5C26.875 21.2929 27.0429 21.125 27.25 21.125" stroke="white" stroke-width="1.5"/>
<path d="M27.25 21.875C27.4571 21.875 27.625 21.7071 27.625 21.5C27.625 21.2929 27.4571 21.125 27.25 21.125" stroke="white" stroke-width="1.5"/>
</g>
<defs>
<clipPath id="clip0_869_21568">
<rect width="24" height="24" fill="white" transform="translate(11.5 9.5)"/>
</clipPath>
</defs>
</svg>
