<svg width="44" height="44" viewBox="0 0 44 44" fill="none" xmlns="http://www.w3.org/2000/svg">
<rect width="44" height="44" rx="22" fill="#D9A445"/>
<g clip-path="url(#clip0_1098_19425)">
<path d="M10.124 26.0213L15.2022 14.2959C15.3313 13.9974 15.5928 13.8048 15.883 13.7475L16.1048 18.6005C16.1104 18.7213 16.0767 18.8405 16.0083 18.9404L10.4054 27.1341C10.0965 26.8936 9.92818 26.4726 10.124 26.0207V26.0213Z" fill="#2D2D2D" stroke="#2D2D2D" stroke-width="0.357384"/>
<path d="M16.5877 13.8878L18.5618 15.2064L16.0508 18.9836L15.8826 13.7476C16.1165 13.7013 16.3697 13.7421 16.5877 13.8878Z" fill="#2D2D2D" stroke="#2D2D2D" stroke-width="0.357384"/>
<path d="M18.5628 15.2065L10.406 27.135C10.7536 27.4053 11.2788 27.4478 11.664 27.05L21.333 17.057L18.5622 15.2065H18.5628Z" fill="#2D2D2D" stroke="#2D2D2D" stroke-width="0.357384"/>
<path d="M33.8615 26.0217L28.7834 14.2963C28.6542 13.9978 28.3927 13.8053 28.1025 13.7479L27.8807 18.601C27.8752 18.7217 27.9088 18.8409 27.9773 18.9408L33.5801 27.1346C33.8891 26.894 34.0573 26.4731 33.8615 26.0212V26.0217Z" fill="#2D2D2D" stroke="#2D2D2D" stroke-width="0.357384"/>
<path d="M27.3999 13.8878L25.4258 15.2064L27.9367 18.9836L28.105 13.7476C27.871 13.7013 27.6178 13.7421 27.3999 13.8878Z" fill="#2D2D2D" stroke="#2D2D2D" stroke-width="0.357384"/>
<path d="M25.4256 15.2065L33.5818 27.135C33.2343 27.4053 32.709 27.4478 32.3239 27.05L22.6548 17.057L25.4256 15.2065Z" fill="#2D2D2D" stroke="#2D2D2D" stroke-width="0.357384"/>
<path d="M16.0918 19.0038C16.0814 19.1539 16.1007 19.3068 16.1547 19.4519L21.0983 32.6515C21.2505 33.0587 21.6153 33.2623 21.9794 33.2623V20.8052L16.0918 19.0033V19.0038Z" fill="#2D2D2D" stroke="#2D2D2D" stroke-width="0.357384"/>
<path d="M21.979 20.8056V33.2626C22.3432 33.2626 22.7079 33.059 22.8601 32.6519L27.8037 19.4522C27.8583 19.3071 27.8776 19.1543 27.8666 19.0042L21.979 20.8062V20.8056Z" fill="#2D2D2D" stroke="#2D2D2D" stroke-width="0.357384"/>
<path d="M21.9799 10.7813C21.6836 10.7813 21.3873 10.9192 21.2003 11.1951L16.27 18.4834C16.1641 18.6401 16.105 18.82 16.0918 19.0037L21.9793 20.8057V10.7813H21.9799Z" fill="#2D2D2D" stroke="#2D2D2D" stroke-width="0.357384"/>
<path d="M22.7586 11.1951C22.5721 10.9192 22.2758 10.7813 21.979 10.7813V20.8057L27.8666 19.0037C27.8533 18.82 27.7943 18.6401 27.6884 18.4834L22.7581 11.1951H22.7586Z" fill="#2D2D2D" stroke="#2D2D2D" stroke-width="0.357384"/>
</g>
<defs>
<clipPath id="clip0_1098_19425">
<rect width="24.38" height="23" fill="white" transform="translate(9.81006 10.4999)"/>
</clipPath>
</defs>
</svg>
